# xmcd
#
# Track frame offsets: 
#        150
#        21142
#        40327
#        65557
#        85325
#        109265
#        134054
#        153567
#
# Disc length: 2309 seconds
#
# Revision: 1
# Processed by: cddbd v1.5.2PL0 Copyright (c) Steve Scherf et al.
# Submitted via: ExactAudioCopyFreeDBPlugin 1.0
#
DISCID=6f090308
DTITLE=Tease - Tease
DYEAR=1986
DGENRE=Soul
TTITLE0=The Note
TTITLE1=Better Wild (Than Mild)
TTITLE2=Firestarter
TTITLE3=Body Heat
TTITLE4=Total Control
TTITLE5=Soft Music
TTITLE6=Baby Be Mine
TTITLE7=I Wish You Were Here
EXTD=
EXTT0=
EXTT1=
EXTT2=
EXTT3=
EXTT4=
EXTT5=
EXTT6=
EXTT7=
PLAYORDER=
